HIERARCHY
ROOT Hips
{
  OFFSET 0 0 0
  CHANNELS 6 Xposition Yposition Zposition Zrotation Yrotation Xrotation
  JOINT LeftThigh
  {
    OFFSET 8.409438 0 -5.917753
    CHANNELS 3 Zrotation Yrotation Xrotation
    JOINT LeftLeg
    {
      OFFSET 0 0 -42.358652
      CHANNELS 3 Zrotation Yrotation Xrotation
      JOINT LeftFoot
      {
        OFFSET 0 0 -39.357303
        CHANNELS 3 Zrotation Yrotation Xrotation
      }
    }
  }
  JOINT RightThigh
  {
    OFFSET -8.409438 0 -5.917753
    CHANNELS 3 Zrotation Yrotation Xrotation
    JOINT RightLeg
    {
      OFFSET 0 0 -42.358652
      CHANNELS 3 Zrotation Yrotation Xrotation
      JOINT RightFoot
      {
        OFFSET 0 0 -39.357303
        CHANNELS 3 Zrotation Yrotation Xrotation
      }
    }
  }
  JOINT SpineLow
  {
    OFFSET 0 0 4.719101
    CHANNELS 3 Zrotation Yrotation Xrotation
    JOINT SpineMid
    {
      OFFSET 0 0 12.899191
      CHANNELS 3 Zrotation Yrotation Xrotation
      JOINT Chest
      {
        OFFSET 0 0 12.899191
        CHANNELS 3 Zrotation Yrotation Xrotation
        JOINT LeftShoulder
        {
          OFFSET 7.550562 1.41573 9.438202
          CHANNELS 3 Zrotation Yrotation Xrotation
          JOINT LeftArm
          {
            OFFSET 9.155056 0 4.247191
            CHANNELS 3 Zrotation Yrotation Xrotation
            JOINT LeftForearm
            {
              OFFSET 0 0 25.771955
              CHANNELS 3 Zrotation Yrotation Xrotation
              JOINT LeftHand
              {
                OFFSET 0 0 25.197169
                CHANNELS 3 Zrotation Yrotation Xrotation
              }
            }
          }
        }
        JOINT RightShoulder
        {
          OFFSET -7.550562 1.41573 9.438202
          CHANNELS 3 Zrotation Yrotation Xrotation
          JOINT RightArm
          {
            OFFSET -9.155056 0 4.247191
            CHANNELS 3 Zrotation Yrotation Xrotation
            JOINT RightForearm
            {
              OFFSET 0 0 -25.771955
              CHANNELS 3 Zrotation Yrotation Xrotation
              JOINT RightHand
              {
                OFFSET 0 0 -25.197169
                CHANNELS 3 Zrotation Yrotation Xrotation
              }
            }
          }
        }
        JOINT Neck
        {
          OFFSET 0 0 15.101124
          CHANNELS 3 Zrotation Yrotation Xrotation
          JOINT Head
          {
            OFFSET 0 0 11.325843
            CHANNELS 3 Zrotation Yrotation Xrotation
            End Site
            {
              OFFSET 0 0 14.157303
            }
          }
        }
      }
    }
  }
}
MOTION
Frames: 16
Frame Time: 0.0
0.0  89.887642  0.0  1.573539  12.703241  -89.535116  4.764563  -12.290548  -12.660136  -8.991187  3.013073  21.140884  -5.67152  -2.9538  -0.25395  -19.347253  10.46221  -12.788623  -8.29123  7.107524  17.466983  -0.768929  0.830248  -2.627799  -0.900599  0.614971  0.546137  -2.448162  1.700935  1.469969  -2.448161  1.700935  1.469969  -0.907872  11.050156  13.041243  135.894306  44.055607  -164.090281  -24.481522  5.365128  39.419626  79.528015  -15.239327  0.352696  -6.957586  -12.888442  21.203591  87.524242  37.714002  34.004676  -2.812927  8.628404  -35.150246  85.166932  16.072694  -25.847812  -6.259329  -0.721943  -1.550391  -4.696302  -0.525647  -1.170318  
0.0  89.887642  0.0  1.601387  13.36407  -89.369438  4.366927  -12.357093  -13.064478  -9.464535  3.309437  21.249524  -5.58017  -2.828164  -0.135614  -19.758015  10.655303  -13.106468  -8.640015  7.181641  18.150593  -0.746221  0.760862  -2.728791  -0.979409  0.612098  0.520191  -2.664345  1.693773  1.397114  -2.664345  1.693773  1.397114  -1.170254  11.269076  12.925357  135.012681  43.864058  -164.812707  -24.614915  5.462129  38.308912  78.930021  -15.216891  0.301163  -7.451265  -12.844618  20.642646  88.017547  37.348712  33.429339  -2.103571  8.116057  -32.142467  85.42913  16.054199  -25.786083  -6.341546  -0.703891  -1.56177  -4.757935  -0.511782  -1.178768  
0.0  89.887642  0.0  1.710229  14.126602  -89.237737  3.909258  -12.359192  -13.466874  -9.869864  3.744274  21.544661  -5.586111  -2.826479  -0.064838  -20.266141  11.07102  -13.588583  -9.385986  7.298243  19.160314  -0.689368  0.726527  -2.881126  -1.070213  0.624101  0.503306  -2.912794  1.727721  1.348091  -2.912793  1.727721  1.348091  -1.464975  11.512207  12.79333  134.332907  43.714563  -165.597208  -25.089898  5.668999  37.089049  78.407082  -15.443903  0.542038  -7.70898  -12.837088  20.147981  87.996646  37.096852  32.741704  -1.333907  7.650131  -29.300951  85.739204  15.996838  -25.70436  -6.441941  -0.716636  -1.563752  -4.833263  -0.521066  -1.180509  
0.0  89.887642  0.0  1.85974  15.011848  -89.047665  3.341532  -12.398794  -14.065131  -10.284152  4.339219  21.984723  -5.583009  -2.760775  -8.33E-4  -20.823547  11.584859  -14.30682  -10.412417  7.617757  20.588432  -0.719529  0.685977  -3.124947  -1.182639  0.637959  0.483817  -3.220418  1.766897  1.291188  -3.220418  1.766897  1.291188  -1.744473  11.766179  12.727533  133.674951  43.580133  -166.267599  -25.780869  5.85057  35.932859  77.937446  -15.643096  0.68203  -8.115116  -12.774301  19.580049  87.853151  36.994225  32.197386  -0.29922  7.100725  -26.893295  86.13733  15.926315  -25.697497  -6.547425  -0.737437  -1.581993  -4.912448  -0.536206  -1.194542  
0.0  89.887642  0.0  2.079737  15.968561  -88.832334  2.667128  -12.463415  -14.821916  -10.589025  5.154709  22.671431  -5.607424  -2.748961  0.074521  -21.300036  12.185506  -15.183814  -11.395638  8.040013  22.372243  -0.555192  0.66888  -3.3755  -1.311626  0.658912  0.466256  -3.573175  1.825672  1.238589  -3.573176  1.825672  1.238589  -1.943176  11.988163  12.744341  133.019836  43.536272  -166.73405  -26.681382  5.96106  34.727352  77.552602  -15.880423  0.757134  -8.267379  -12.61997  19.070901  88.108492  36.763531  31.743798  0.237762  6.552459  -24.538028  86.571101  15.856641  -25.732286  -6.647413  -0.776051  -1.610898  -4.98757  -0.5646  -1.216768  
0.0  89.887642  0.0  2.341949  16.968533  -88.578822  1.884672  -12.558284  -15.775269  -10.766408  6.112868  23.563468  -5.525143  -2.799972  0.180866  -21.999796  12.764925  -16.418155  -11.57108  8.412365  24.506429  -0.466661  0.618581  -3.540497  -1.446094  0.684246  0.447424  -3.940931  1.896228  1.181872  -3.940931  1.896228  1.181872  -2.032377  12.133528  12.839518  132.385843  43.44519  -166.997425  -27.596862  5.875052  33.668145  77.264926  -16.051473  0.866518  -8.434858  -12.41681  18.539997  88.470085  36.55706  31.556289  0.887605  6.147116  -22.659517  87.006036  15.842322  -25.659752  -6.767537  -0.832053  -1.649518  -5.077853  -0.605866  -1.246513  
0.0  89.887642  0.0  2.61054  17.939725  -88.286916  1.202272  -12.542032  -16.810147  -11.057843  6.949509  24.479852  -5.502142  -2.778175  0.314161  -22.249929  13.268417  -17.573016  -11.502685  8.663339  26.557109  -0.498863  0.678498  -3.543174  -1.57117  0.713074  0.427977  -4.283033  1.975906  1.123251  -4.283033  1.975905  1.123251  -1.999257  12.179693  12.989099  131.621311  43.345926  -167.088505  -28.536579  5.499806  32.72616  77.033139  -16.126665  1.11247  -8.439262  -12.120497  18.100854  88.940829  36.445059  31.401995  1.50442  5.947861  -21.093069  87.47936  15.872229  -25.419006  -6.918215  -0.918902  -1.701951  -5.191156  -0.670017  -1.287035  
0.0  89.887642  0.0  2.89056  18.92923  -87.95196  0.706058  -12.404117  -17.841428  -11.646021  7.682068  25.375309  -5.21653  -2.655871  0.492858  -22.619546  13.568543  -18.726326  -10.821715  8.771602  28.503598  -1.553546  0.292585  -3.513016  -1.673918  0.752715  0.408398  -4.564015  2.084538  1.063931  -4.564015  2.084538  1.063931  -2.086865  12.158623  13.04125  130.999867  43.154508  -167.068045  -29.285428  4.925429  31.997849  76.81861  -16.104595  1.417876  -8.543173  -11.869225  17.650989  89.497566  36.288036  31.412385  1.996272  6.032658  -19.955365  88.180559  15.926022  -25.062871  -7.174668  -1.060538  -1.761541  -5.383957  -0.774857  -1.333789  
0.0  89.887642  0.0  3.106203  19.874857  -87.652115  0.422944  -12.343592  -18.831184  -12.395141  8.64392  26.223485  -4.925512  -2.639897  0.547628  -23.002342  13.63418  -19.777077  -9.761509  8.831765  30.346003  -1.704057  0.411626  -3.372355  -1.740952  0.794168  0.399104  -4.74707  2.198148  1.033447  -4.74707  2.198148  1.033447  -2.29583  12.046613  12.907153  130.541139  42.852999  -166.987325  -29.973822  4.320596  31.463603  76.60434  -16.026658  1.80217  -8.643278  -11.701988  17.190046  89.827091  35.991029  31.378812  2.750633  6.490101  -19.162183  88.756211  15.897919  -24.394846  -7.551313  -1.269053  -1.816457  -5.667084  -0.929523  -1.37822  
0.0  89.887642  0.0  3.233613  20.745114  -87.361655  0.315239  -12.580975  -19.949294  -12.894742  9.841946  27.238199  -4.691008  -2.570802  0.543214  -23.290347  13.485087  -20.828339  -8.572001  8.970366  32.316037  -1.775491  0.741917  -3.273367  -1.777771  0.821167  0.401137  -4.847338  2.272602  1.035805  -4.847338  2.272602  1.035805  -2.480978  11.903246  12.654945  130.285274  42.55189  -166.748905  -30.202295  3.930155  31.469856  76.12351  -15.723051  1.842057  -8.785445  -11.529606  16.577304  90.171372  35.58907  31.484578  3.362412  7.049358  -18.731754  89.318607  15.829472  -23.509577  -8.01928  -1.511719  -1.897351  -6.018872  -1.109131  -1.443067  
0.0  89.887642  0.0  3.275303  21.575912  -87.079342  0.277433  -13.039925  -21.222227  -13.132677  11.287608  28.435851  -4.447223  -2.586878  0.460741  -23.224567  13.18116  -21.866968  -7.729502  9.437215  34.491037  -1.94597  1.063118  -3.358936  -1.796806  0.84321  0.407206  -4.8989  2.333547  1.050109  -4.898899  2.333547  1.05011  -2.587677  11.743611  12.537885  130.303982  42.490415  -166.26951  -30.9101  3.634817  31.363969  75.904283  -15.717138  2.130144  -8.830791  -11.445579  15.936762  90.496013  35.230695  31.672896  3.900212  7.490294  -18.545047  89.627566  15.677382  -22.478162  -8.555956  -1.806642  -1.963532  -6.422317  -1.327817  -1.498177  
0.0  89.887642  0.0  3.164973  22.341302  -86.812289  0.10679  -13.679075  -22.714524  -12.818599  12.695611  29.950523  -4.037272  -2.568142  0.449481  -22.587776  12.710405  -22.698584  -7.255199  10.078834  36.414944  -2.116844  1.303379  -3.295938  -1.797988  0.852007  0.414562  -4.90176  2.358139  1.069521  -4.90176  2.358139  1.069521  -2.638034  11.600868  12.585909  130.629255  42.740182  -165.584599  -31.623587  3.563468  31.56082  75.78835  -15.734432  2.153182  -8.937611  -11.406843  15.297924  90.796775  34.904362  31.906179  4.30585  7.869039  -18.523176  89.690295  15.585917  -21.62217  -9.122713  -2.131595  -2.01861  -6.848375  -1.568999  -1.546026  
0.0  89.887642  0.0  2.845038  22.893882  -86.718319  0.135297  -14.449403  -23.973517  -12.410627  13.895126  31.351795  -3.630895  -2.654258  0.295359  -21.437668  12.126839  -23.117626  -6.842223  10.582717  37.940067  -2.456881  1.537991  -3.001736  -1.776225  0.836354  0.446005  -4.84134  2.317341  1.157369  -4.84134  2.317341  1.157369  -2.538089  11.437244  12.603154  131.246785  43.069209  -164.705952  -32.442202  3.571785  31.993118  75.873039  -15.719329  2.060571  -8.882027  -11.394626  14.585203  91.120146  34.537597  32.282986  4.498943  8.19051  -18.650783  89.59179  15.559924  -21.124614  -9.659828  -2.458583  -2.110377  -7.252351  -1.811145  -1.621907  
0.0  89.887642  0.0  2.299048  23.057786  -86.985923  0.671289  -15.315146  -24.784085  -12.111156  14.92669  32.486176  -3.128537  -2.729353  0.168616  -19.429847  11.488576  -23.131144  -7.015351  11.067591  39.152446  -2.635485  1.945274  -2.445368  -1.682674  0.808208  0.53818  -4.582792  2.245246  1.414513  -4.582791  2.245246  1.414514  -2.525803  11.178571  12.431856  132.138063  43.298245  -163.709841  -33.287734  3.569864  32.735637  76.076575  -15.602503  1.824061  -8.706843  -11.521682  13.719132  91.387323  34.269405  32.772713  4.318567  8.268675  -18.716694  89.68083  15.691722  -20.946763  -10.221568  -2.815543  -2.262082  -7.67518  -2.074549  -1.743929  
0.0  89.887642  0.0  1.427247  22.549111  -87.589412  2.515236  -16.277831  -25.410263  -12.14925  15.775582  33.567181  -3.219783  -2.922878  -0.021286  -16.815779  10.679194  -22.932918  -7.150358  11.209195  40.300415  -3.15811  2.405281  -1.970137  -1.531204  0.716788  0.630326  -4.167547  1.998122  1.677229  -4.167547  1.998122  1.677229  -2.201511  11.142084  12.244196  133.191124  43.317726  -162.730812  -34.180244  3.526852  33.80732  76.342751  -15.374191  1.592678  -8.210626  -11.664006  12.919779  91.765271  34.111094  33.548992  4.164114  8.050435  -18.738445  89.769416  15.670581  -20.799047  -10.588858  -3.001474  -2.358261  -7.95155  -2.211077  -1.820993  
0.0  89.887642  0.0  0.347095  21.423544  -88.383915  4.941767  -17.3622  -25.542881  -11.975824  16.146058  34.489806  -4.229011  -3.093827  -0.405528  -14.189504  9.648111  -22.706962  -6.991009  11.211686  41.309966  -3.525665  2.742808  -1.609409  -1.279181  0.594618  0.731188  -3.478843  1.663308  1.966918  -3.478843  1.663308  1.966918  -1.94778  11.22603  11.816689  134.388981  43.140122  -161.823666  -35.077529  3.438796  35.098739  76.668188  -15.060686  1.401961  -7.569537  -12.117172  11.877764  92.020668  33.877443  34.574051  4.078265  7.615568  -18.496319  89.902433  15.458753  -20.549054  -10.948493  -3.099909  -2.418863  -8.221791  -2.282515  -1.870006  
